# xmcd
#
# Track frame offsets:
#	150
#	12072
#	28490
#	48155
#	76002
#	86497
#	106837
#	124652
#	136720
#	161157
#
# Disc length: 2399 seconds
#
# Revision: 0
# Processed by: cddbd v1.5.2PL0 Copyright (c) Steve Scherf et al.
# Submitted via: EasyCDDAExtractor 11.1.0.1
#
DISCID=6d095d0a
DTITLE=Various Artist - Exile Records Guitar Sampler
DYEAR=1995
DGENRE=Blues
TTITLE0=The Hellecasters - Highlander Boogie
TTITLE1=The Hellecasters - Peter Gunn
TTITLE2=Danny Gatton - Fine
TTITLE3=Danny Gatton - Broadway
TTITLE4=Mal Eastick - The Double 'EE' Boogie
TTITLE5=Mal Eastick - Two Loves
TTITLE6=The Hellecasters - Danger Man
TTITLE7=The Hellecasters - Inspector Gadget
TTITLE8=Chris Finnen Blues Band - Tribute To Roy Buchanan
TTITLE9=Chris Finnen Blues Band - THC
EXTD=
EXTT0=
EXTT1=
EXTT2=
EXTT3=
EXTT4=
EXTT5=
EXTT6=
EXTT7=
EXTT8=
EXTT9=
PLAYORDER=
